<svg xmlns="http://www.w3.org/2000/svg" xmlns:xlink="http://www.w3.org/1999/xlink" width="218.981" height="183.044" viewBox="0 0 218.981 183.044">
  <defs>
    <linearGradient id="linear-gradient" x1="0.5" y1="0.973" x2="0.508" y2="-0.072" gradientUnits="objectBoundingBox">
      <stop offset="0" stop-color="#3662dc"/>
      <stop offset="1" stop-color="#1b316e"/>
    </linearGradient>
    <linearGradient id="linear-gradient-2" x1="1" y1="1" x2="0.75" y2="0.149" xlink:href="#linear-gradient"/>
    <linearGradient id="linear-gradient-3" x1="0" y1="1" x2="0.25" y2="0.149" xlink:href="#linear-gradient"/>
    <linearGradient id="linear-gradient-4" x1="1" y1="1" x2="0.866" y2="0.323" xlink:href="#linear-gradient"/>
    <linearGradient id="linear-gradient-5" x1="0" y1="1" x2="0.134" y2="0.323" xlink:href="#linear-gradient"/>
    <linearGradient id="linear-gradient-6" y1="1" x2="0.617" gradientUnits="objectBoundingBox">
      <stop offset="0" stop-color="#242b33"/>
      <stop offset="1" stop-color="#6c7176"/>
    </linearGradient>
    <filter id="Trazado_25" x="0" y="0" width="118.509" height="183.044" filterUnits="userSpaceOnUse">
      <feOffset dy="3" input="SourceAlpha"/>
      <feGaussianBlur stdDeviation="3" result="blur"/>
      <feFlood flood-opacity="0.161"/>
      <feComposite operator="in" in2="blur"/>
      <feComposite in="SourceGraphic"/>
    </filter>
    <linearGradient id="linear-gradient-7" x1="1" y1="1" x2="0.373" y2="0.013" xlink:href="#linear-gradient-6"/>
    <filter id="Trazado_26" x="100.472" y="0" width="118.509" height="183.044" filterUnits="userSpaceOnUse">
      <feOffset dy="3" input="SourceAlpha"/>
      <feGaussianBlur stdDeviation="3" result="blur-2"/>
      <feFlood flood-opacity="0.161"/>
      <feComposite operator="in" in2="blur-2"/>
      <feComposite in="SourceGraphic"/>
    </filter>
  </defs>
  <g id="Grupo_15" data-name="Grupo 15" transform="translate(-29.522 -50.956)">
    <g id="Grupo_16" data-name="Grupo 16" transform="translate(-44.278 -75.606)">
      <path id="Trazado_28" data-name="Trazado 28" d="M-268.821,155.935c-1.821-15.1,1.33-36.876,26.993-39.525s38.067,28.556,38.067,28.556,8.279-28.912,36.3-28.556c27.15.346,30.969,21.341,28.926,38.795.007-.322,0,.207-.015.73-45.34-18.976-65.208,43.755-65.208,43.755S-223.2,134.921-268.821,155.935Z" transform="translate(387.018 32.546)" fill="url(#linear-gradient)"/>
      <g id="Grupo_13" data-name="Grupo 13" transform="translate(118.29 149.24)">
        <path id="Trazado_29" data-name="Trazado 29" d="M-202.888,199.2c.089-37.662,0-47.411,0-54.518-2.453-7.3-12.284-19.37-16.556-22.086-25.276-16.067-49.075,1.7-48.4,24.3C-234,137.149-216.12,148.077-202.888,199.2Z" transform="translate(267.854 -116.406)" fill="url(#linear-gradient-2)"/>
        <path id="Trazado_30" data-name="Trazado 30" d="M-267.836,199.1c-.045-37.484,0-47.411,0-54.518,2.453-7.3,12.284-19.37,16.556-22.086,25.276-16.067,50.371,2.675,48.4,24.3C-236.723,137.051-254.6,147.978-267.836,199.1Z" transform="translate(332.803 -116.307)" fill="url(#linear-gradient-3)"/>
      </g>
      <g id="Grupo_14" data-name="Grupo 14" transform="translate(118.598 149.252)">
        <path id="Trazado_31" data-name="Trazado 31" d="M-205,201.591c.089-43.481-.027-48.061,0-54.612-2-3.71-9.476-17.449-15.5-21.275-12.405-12-44.523-9.941-49.154,17.872C-235.537,136.655-219.007,139.425-205,201.591Z" transform="translate(269.656 -118.752)" fill="url(#linear-gradient-4)"/>
        <path id="Trazado_32" data-name="Trazado 32" d="M-269.622,201.591c-.089-43.481.027-48.061,0-54.612,2-3.71,9.476-17.449,15.5-21.275,12.405-12,44.523-9.941,49.153,17.872C-239.083,136.655-255.613,139.425-269.622,201.591Z" transform="translate(334.314 -118.752)" fill="url(#linear-gradient-5)"/>
      </g>
      <g transform="matrix(1, 0, 0, 1, 73.8, 126.56)" filter="url(#Trazado_25)">
        <path id="Trazado_25-2" data-name="Trazado 25" d="M501.574,67.555s-6.92-45.67-50.514-44.978-49.995,40.307-49.995,46.362V187.613s33.906.519,35.464-37.54V68.939C436.009,42.125,478.739,18.425,501.574,67.555Z" transform="translate(-392.06 -16.57)" fill="url(#linear-gradient-6)"/>
      </g>
      <g transform="matrix(1, 0, 0, 1, 73.8, 126.56)" filter="url(#Trazado_26)">
        <path id="Trazado_26-2" data-name="Trazado 26" d="M401.065,67.555s6.92-45.67,50.514-44.978,50,40.307,50,46.362V187.612s-33.907.519-35.464-37.54V68.939C466.629,42.125,423.9,18.425,401.065,67.555Z" transform="translate(-291.59 -16.57)" fill="url(#linear-gradient-7)"/>
      </g>
    </g>
  </g>
</svg>
