<svg xmlns="http://www.w3.org/2000/svg" width="41.158" height="28.169" viewBox="0 0 41.158 28.169">
  <path id="Icon_awesome-laravel" data-name="Icon awesome-laravel" d="M40.992,15.758c-.27-.309-4.038-5.022-4.7-5.819s-.99-.656-1.4-.6-5.176.862-5.729.952-.9.315-.559.791c.3.424,3.434,4.868,4.128,5.845L20.28,19.912,10.365,3.354c-.392-.585-.476-.791-1.376-.746s-7.774.611-8.263.656S-.3,3.521.186,4.679,8.481,22.657,8.7,23.146a1.671,1.671,0,0,0,2.109.965c1.357-.328,6.064-1.556,8.636-2.231,1.357,2.463,4.128,7.453,4.643,8.166.682.958,1.157.8,2.206.476.823-.251,12.835-4.572,13.375-4.79s.874-.379.508-.926c-.27-.4-3.44-4.643-5.1-6.867,1.138-.3,5.183-1.376,5.614-1.5.508-.129.579-.373.3-.682Zm-22.647,4.63c-.148.032-7.125,1.7-7.5,1.788s-.373.045-.418-.084S2.134,4.942,2.019,4.73s-.109-.379,0-.379,6.591-.579,6.816-.592.206.039.289.18c0,0,9.144,15.78,9.3,16.056S18.493,20.355,18.345,20.387Zm19.676,3.691c.109.174.225.289-.129.412s-11.812,3.993-12.031,4.09-.4.129-.682-.289-4.012-6.867-4.012-6.867l12.14-3.157c.3-.1.4-.161.592.141s4.012,5.5,4.122,5.671Zm.778-8.623c-.27.058-4.733,1.164-4.733,1.164l-3.646-5c-.1-.148-.186-.289.071-.322s4.4-.784,4.585-.823.347-.1.579.219,3.382,4.308,3.5,4.463-.09.238-.36.3Z" transform="translate(0.006 -2.602)" fill="#fff"/>
</svg>
