<svg xmlns="http://www.w3.org/2000/svg" width="128.078" height="112.068" viewBox="0 0 128.078 112.068">
  <path id="Icon_awesome-server" data-name="Icon awesome-server" d="M120.073,34.269H8a8,8,0,0,1-8-8V10.255a8,8,0,0,1,8-8H120.073a8,8,0,0,1,8,8v16.01A8,8,0,0,1,120.073,34.269ZM108.066,12.256a6,6,0,1,0,6,6A6,6,0,0,0,108.066,12.256Zm-16.01,0a6,6,0,1,0,6,6A6,6,0,0,0,92.056,12.256Zm28.017,62.038H8a8,8,0,0,1-8-8V50.279a8,8,0,0,1,8-8H120.073a8,8,0,0,1,8,8v16.01A8,8,0,0,1,120.073,74.294ZM108.066,52.28a6,6,0,1,0,6,6A6,6,0,0,0,108.066,52.28Zm-16.01,0a6,6,0,1,0,6,6A6,6,0,0,0,92.056,52.28Zm28.017,62.038H8a8,8,0,0,1-8-8V90.3a8,8,0,0,1,8-8H120.073a8,8,0,0,1,8,8v16.01A8,8,0,0,1,120.073,114.318ZM108.066,92.3a6,6,0,1,0,6,6A6,6,0,0,0,108.066,92.3Zm-16.01,0a6,6,0,1,0,6,6A6,6,0,0,0,92.056,92.3Z" transform="translate(0 -2.25)" fill="#242b33"/>
</svg>
