<svg xmlns="http://www.w3.org/2000/svg" width="580.006" height="501.686" viewBox="0 0 580.006 501.686">
  <g id="Grupo_53" data-name="Grupo 53" transform="translate(-228.39 -3562.379)">
    <path id="Icon_ionic-ios-mail-open" data-name="Icon ionic-ios-mail-open" d="M299.354,132.028c-2.92-2.92-115.545-117.808-115.545-117.808a40.1,40.1,0,0,0-57.225.073S14.47,128.525,11.039,132.1a29.328,29.328,0,0,0-7.664,19.051V305.893A23.426,23.426,0,0,0,26.732,329.25H283.661a23.426,23.426,0,0,0,23.357-23.357V150.422C307.018,141.882,302.2,135.021,299.354,132.028ZM285.194,162.9,226,224.8a1.411,1.411,0,0,0,0,2.044l54.962,58.539a9.472,9.472,0,0,1,0,13.43,9.516,9.516,0,0,1-13.43,0L157.313,181.151a2.872,2.872,0,0,0-4.233,0L42.936,298.74a9.516,9.516,0,0,1-13.43,0,9.472,9.472,0,0,1,0-13.43l54.962-58.539a1.554,1.554,0,0,0,0-2.044l-59.415-61.9C17.973,155.6,23.3,136.7,36.8,136.7H273.588C285.632,136.627,292.274,155.75,285.194,162.9Z" transform="translate(354.294 3755.826) rotate(-20)" fill="#fff"/>
    <path id="Icon_simple-email" data-name="Icon simple-email" d="M154.928,78.056a87.22,87.22,0,0,1-2.811,18.917,54.743,54.743,0,0,1-7.355,16.613,38.813,38.813,0,0,1-12.47,11.8c-5.073,2.991-11.128,4.491-18.209,4.491a26.4,26.4,0,0,1-13.168-3.223,22.55,22.55,0,0,1-8.9-9.12,28.2,28.2,0,0,1-23.863,11.984,24.264,24.264,0,0,1-20.83-11.2,36.671,36.671,0,0,1-5.178-12.978,55.969,55.969,0,0,1-.676-16.93,78.645,78.645,0,0,1,5.157-20.735,56.359,56.359,0,0,1,9.532-15.884,40.326,40.326,0,0,1,13.1-10.124A36.566,36.566,0,0,1,85.2,38.13a49.555,49.555,0,0,1,9.532.814,39.019,39.019,0,0,1,7.4,2.219,40,40,0,0,1,6.13,3.234c1.871,1.2,3.752,2.452,5.622,3.72l-4.629,53.264a17.7,17.7,0,0,0,.137,6.235,8.724,8.724,0,0,0,1.9,3.847,6.848,6.848,0,0,0,3.086,2.008,11.456,11.456,0,0,0,10.843-2.135,23.109,23.109,0,0,0,5.813-7.4,47.644,47.644,0,0,0,3.91-11.118,76.281,76.281,0,0,0,1.712-13.844,88.476,88.476,0,0,0-2.177-25.871A51.425,51.425,0,0,0,124.9,33.089,44.46,44.46,0,0,0,107.741,20.2q-10.462-4.565-25-4.576a55.209,55.209,0,0,0-24.73,5.39,56.74,56.74,0,0,0-18.79,14.943,71.716,71.716,0,0,0-12.3,22.479,101.3,101.3,0,0,0-5.178,28.006q-.713,16.328,2.642,28.576a51.612,51.612,0,0,0,10.441,20.481,43.572,43.572,0,0,0,17.691,12.3,67.86,67.86,0,0,0,24.412,4.079,83.615,83.615,0,0,0,16.021-1.723c2.642-.528,5.147-1.163,7.535-1.86a56.713,56.713,0,0,0,6.489-2.325l3.35,15.07a37.188,37.188,0,0,1-7.26,3.593,69.885,69.885,0,0,1-8.581,2.484,83.733,83.733,0,0,1-17.924,2.008q-18.42,0-32.677-5.263A60.141,60.141,0,0,1,20.057,148.2q-9.575-10.383-14.3-25.86-4.708-15.472-3.995-35.9A109.486,109.486,0,0,1,8.633,51.985a85.265,85.265,0,0,1,16.55-27.372A75.415,75.415,0,0,1,50.43,6.552,79.046,79.046,0,0,1,83.128,0Q101.1,0,114.811,5.675a61.623,61.623,0,0,1,22.87,15.958,65.49,65.49,0,0,1,13.57,24.656A94.274,94.274,0,0,1,154.928,78.056ZM64.169,88.413q-1,11.778,1.86,17.828,2.853,6.024,9.194,6.024a10.156,10.156,0,0,0,3.149-.581A11.231,11.231,0,0,0,82,109.507a19.345,19.345,0,0,0,3.678-4.439,34.063,34.063,0,0,0,3.382-7.5L92.671,56.18a21.593,21.593,0,0,0-5.622-.74A19.439,19.439,0,0,0,77.7,57.586a18.515,18.515,0,0,0-6.626,6.3,36.989,36.989,0,0,0-4.4,10.357A87.856,87.856,0,0,0,64.179,88.4Z" transform="translate(653.364 3594.939)" fill="#fff"/>
    <path id="Icon_ionic-ios-call" data-name="Icon ionic-ios-call" d="M276.316,223.661C265.6,212.95,239.882,196.846,227.2,190.8c-14.719-7.068-20.111-6.922-30.531.583-8.671,6.267-14.282,12.1-24.265,9.91-9.983-2.113-29.657-17.051-48.748-36.069C104.568,146.131,89.7,126.457,87.59,116.474c-2.113-10.056,3.716-15.594,9.91-24.265,7.505-10.42,7.724-15.812.583-30.531C92.035,48.926,76,23.277,65.22,12.565,54.508,1.854,52.1,4.185,46.2,6.3a108.223,108.223,0,0,0-17.415,9.254C18.074,22.694,12.1,28.669,7.873,37.631,3.72,46.594-1.09,63.281,23.394,106.855c19.747,35.195,39.13,61.864,67.912,90.574h0l.073.073.073.073h0c28.783,28.783,55.379,48.165,90.574,67.912,43.575,24.483,60.261,19.674,69.224,15.521s14.938-10.129,22.079-20.913a108.222,108.222,0,0,0,9.254-17.415C284.7,236.777,287.1,234.373,276.316,223.661Z" transform="translate(508.577 3557.24) rotate(81)" fill="#fff"/>
  </g>
</svg>
