<svg xmlns="http://www.w3.org/2000/svg" width="32.075" height="34.995" viewBox="0 0 32.075 34.995">
  <g id="Icon_ionic-logo-android" data-name="Icon ionic-logo-android" transform="translate(-5.625 -4.497)">
    <g id="Grupo_31" data-name="Grupo 31" transform="translate(5.625 14.707)">
      <path id="Trazado_35" data-name="Trazado 35" d="M10.125,20.462v8.164A1.185,1.185,0,0,0,11.164,29.9H13.77V34.64a2.187,2.187,0,1,0,4.374,0V29.9h4.465V34.64a2.177,2.177,0,0,0,.8,1.695,2.036,2.036,0,0,0,1.339.492H24.8a2.182,2.182,0,0,0,2.187-2.187V29.9H29.5a1.175,1.175,0,0,0,1.039-1.267V13.5H10.125Z" transform="translate(-4.293 -12.042)" fill="#fff"/>
      <path id="Trazado_36" data-name="Trazado 36" d="M29.187,12.375A2.182,2.182,0,0,0,27,14.562V23.31a2.187,2.187,0,0,0,4.374,0V14.562A2.182,2.182,0,0,0,29.187,12.375Z" transform="translate(0.701 -12.375)" fill="#fff"/>
      <path id="Trazado_37" data-name="Trazado 37" d="M7.812,12.375a2.182,2.182,0,0,0-2.187,2.187V23.31a2.187,2.187,0,0,0,4.374,0V14.562A2.182,2.182,0,0,0,7.812,12.375Z" transform="translate(-5.625 -12.375)" fill="#fff"/>
    </g>
    <path id="Trazado_38" data-name="Trazado 38" d="M25.36,6.788l1.686-2c.036-.046-.018-.146-.118-.228s-.219-.091-.246-.036l-1.75,2.078a12.379,12.379,0,0,0-4.611-.8,12.484,12.484,0,0,0-4.629.775L13.961,4.537c-.036-.046-.146-.036-.246.036s-.155.164-.118.228L15.264,6.77c-4.392,1.9-5.048,6.579-5.139,7.946H30.5C30.418,13.34,29.771,8.729,25.36,6.788Zm-9.513,4.538a1.212,1.212,0,1,1,1.23-1.212A1.227,1.227,0,0,1,15.847,11.326Zm8.966,0a1.212,1.212,0,1,1,1.23-1.212A1.227,1.227,0,0,1,24.814,11.326Z" transform="translate(1.332)" fill="#fff"/>
  </g>
</svg>
