<svg xmlns="http://www.w3.org/2000/svg" width="43.667" height="29.652" viewBox="0 0 43.667 29.652">
  <path id="Icon_simple-mysql" data-name="Icon simple-mysql" d="M29.849,9.041a2.008,2.008,0,0,0-.5.06v.024h.025a4.1,4.1,0,0,0,.389.5c.1.195.182.389.28.582l.025-.027a.677.677,0,0,0,.255-.606c-.073-.086-.084-.171-.146-.255-.073-.122-.229-.182-.328-.278ZM10.5,33.047H8.812c-.055-2.842-.224-5.513-.491-8.024H8.306L5.74,33.047H4.458L1.91,25.023H1.892q-.281,3.611-.355,8.024H0q.15-5.366.746-10.062H2.838L5.267,30.38h.015l2.451-7.394H9.725q.66,5.5.779,10.062Zm7.309-7.423q-1.032,5.581-2.715,8.115a3.616,3.616,0,0,1-2.88,1.952,2.84,2.84,0,0,1-1.03-.251v-.9a4.669,4.669,0,0,0,.7.047,1.7,1.7,0,0,0,1.177-.4,1.466,1.466,0,0,0,.537-1.1,7.3,7.3,0,0,0-.418-1.718l-1.845-5.742h1.656l1.323,4.294a5.765,5.765,0,0,1,.373,2.043,27.757,27.757,0,0,0,1.519-6.337h1.6Zm22.425,7.423H35.447V22.986h1.61V31.81h3.175Zm-6.041.246-1.849-.91a3.907,3.907,0,0,0,.464-.455,6.163,6.163,0,0,0,1.179-4.1q0-4.994-3.921-5a3.731,3.731,0,0,0-3,1.268,6.176,6.176,0,0,0-1.175,4.085,5.965,5.965,0,0,0,1.044,3.894,3.577,3.577,0,0,0,2.88,1.119,4.626,4.626,0,0,0,1.319-.178l2.411,1.4.655-1.132Zm-5.99-2.26a6.183,6.183,0,0,1-.613-3.159q0-3.8,2.311-3.8a1.944,1.944,0,0,1,1.778.91,6.154,6.154,0,0,1,.611,3.135q0,3.832-2.311,3.835a1.945,1.945,0,0,1-1.779-.91Zm-3.017-.773a2.666,2.666,0,0,1-.939,2.1,3.689,3.689,0,0,1-2.518.819,5.046,5.046,0,0,1-2.862-.937l.431-.866a4.882,4.882,0,0,0,2.165.6,2.274,2.274,0,0,0,1.425-.4,1.371,1.371,0,0,0,.546-1.119c0-.6-.418-1.11-1.179-1.537-.706-.388-2.116-1.2-2.116-1.2a2.408,2.408,0,0,1-1.15-2.142,2.5,2.5,0,0,1,.855-1.974,3.223,3.223,0,0,1,2.22-.755,4.567,4.567,0,0,1,2.547.746l-.388.866a4.96,4.96,0,0,0-1.936-.418,1.713,1.713,0,0,0-1.19.375,1.246,1.246,0,0,0-.451.953c0,.6.426,1.11,1.212,1.547.715.391,2.16,1.219,2.16,1.219A2.369,2.369,0,0,1,25.2,30.265Zm17.07-10.648a5.578,5.578,0,0,0-2.36.342c-.182.073-.473.073-.5.3.1.1.115.255.2.389a2.791,2.791,0,0,0,.63.741c.255.2.509.393.777.564.473.291,1.01.464,1.474.757.264.171.533.388.8.569.133.091.218.255.389.313v-.036c-.084-.109-.109-.267-.191-.389-.122-.122-.244-.231-.364-.351a5.864,5.864,0,0,0-1.265-1.228c-.389-.266-1.241-.637-1.4-1.083l-.024-.025a4.9,4.9,0,0,0,.837-.193c.413-.109.791-.086,1.219-.193.193-.049.388-.109.582-.171v-.109c-.218-.218-.382-.515-.608-.719a16.135,16.135,0,0,0-2.009-1.5c-.382-.244-.866-.4-1.268-.608-.146-.073-.389-.109-.473-.231a4.691,4.691,0,0,1-.5-.935c-.349-.67-.691-1.41-1-2.116a12.6,12.6,0,0,0-.619-1.388,12.259,12.259,0,0,0-4.705-4.549,5.925,5.925,0,0,0-1.557-.5c-.3-.015-.608-.036-.91-.049a4.414,4.414,0,0,1-.564-.428c-.691-.437-2.482-1.383-2.991-.131-.328.79.486,1.568.768,1.969a5.609,5.609,0,0,1,.619.91c.086.211.109.428.195.648a14.56,14.56,0,0,0,.631,1.632,5.58,5.58,0,0,0,.449.751c.1.133.266.195.3.413a3.542,3.542,0,0,0-.28.91,5.389,5.389,0,0,0,.353,4.094c.195.3.659.972,1.279.715.546-.218.426-.91.582-1.519.036-.146.013-.242.087-.34v.027c.171.342.342.668.5,1.01a6.846,6.846,0,0,0,1.577,1.628c.291.218.522.6.886.731v-.036h-.027a1.624,1.624,0,0,0-.28-.242,6.267,6.267,0,0,1-.637-.728,15.938,15.938,0,0,1-1.359-2.216c-.2-.382-.368-.793-.528-1.17-.073-.146-.073-.364-.195-.437a4.49,4.49,0,0,0-.582.824,6.951,6.951,0,0,0-.342,1.838c-.049.013-.025,0-.049.025-.389-.095-.522-.5-.668-.837a5.281,5.281,0,0,1-.109-3.248c.086-.255.449-1.059.3-1.3-.076-.231-.317-.364-.449-.551a4.508,4.508,0,0,1-.437-.777c-.291-.68-.437-1.434-.753-2.114a6.3,6.3,0,0,0-.608-.933,6.122,6.122,0,0,1-.67-.946c-.06-.133-.146-.353-.049-.5a.207.207,0,0,1,.171-.164c.16-.131.61.04.768.113a6.222,6.222,0,0,1,1.2.608c.171.12.355.351.573.411h.255c.389.086.828.025,1.192.133a7.785,7.785,0,0,1,1.75.837,10.832,10.832,0,0,1,3.794,4.159c.146.28.209.537.342.828.255.6.569,1.206.828,1.787a7.922,7.922,0,0,0,.866,1.632c.182.255.913.388,1.241.52a8.84,8.84,0,0,1,.837.342c.418.255.826.546,1.219.826.2.138.806.442.842.688Z" transform="translate(0 -6.039)" fill="#fff"/>
</svg>
