<svg xmlns="http://www.w3.org/2000/svg" width="36.279" height="36.244" viewBox="0 0 36.279 36.244">
  <path id="springio-icon" d="M33.255,2.048A16.8,16.8,0,0,1,31.309,5.5,18.271,18.271,0,1,0,5.792,31.659l.677.595A18.264,18.264,0,0,0,36.456,19.584c.5-4.651-.868-10.538-3.2-17.536ZM8.393,31.763a1.562,1.562,0,1,1-.23-2.2,1.562,1.562,0,0,1,.23,2.2ZM33.18,26.292c-4.509,6.006-14.137,3.98-20.309,4.271,0,0-1.094.064-2.2.245,0,0,.416-.176.947-.377,4.335-1.509,6.384-1.8,9.017-3.154C25.6,24.756,30.5,19.236,31.52,13.5c-1.886,5.52-7.614,10.266-12.827,12.194a87.574,87.574,0,0,1-10.028,2.6l-.26-.139c-4.392-2.135-4.527-11.647,3.46-14.714,3.5-1.347,6.843-.607,10.62-1.509,4.033-.958,8.7-3.98,10.6-7.923,2.124,6.308,4.682,16.182.095,22.289Z" transform="translate(-0.279 -0.307)" fill="#fff"/>
</svg>
