<svg xmlns="http://www.w3.org/2000/svg" width="36.856" height="41.219" viewBox="0 0 36.856 41.219">
  <g id="g2993" transform="translate(-59.597 294.783)">
    <g id="g2998" transform="translate(59.597 -294.783)">
      <path id="path3005" d="M100.1-288.408c-.019-.235-.03-.387-.03-.387s-.711-4.795-1.558-6.226a5.943,5.943,0,0,1,.388-2.538,28.021,28.021,0,0,1,1.326,2.515c.209.589.252.757.252.757a17.857,17.857,0,0,0-1.336-4.122c.182-.614.4-1.293.645-2.018a25.861,25.861,0,0,1,1.233,2.351c.033.1.062.176.087.25l.024-.134a16.738,16.738,0,0,0-1.074-3.247c1.134-5.9,5-13.791,8.966-17.31H83.157A3.161,3.161,0,0,0,80-315.364v28.523a3.161,3.161,0,0,0,3.152,3.152h17.035a38.488,38.488,0,0,1-.1-4.718" transform="translate(-80.005 320.345)" fill="#fff"/>
      <path id="path3035" d="M103.464-292.991a28.033,28.033,0,0,1,1.326,2.515c.209.589.252.757.252.757a17.857,17.857,0,0,0-1.336-4.122c.182-.614.4-1.293.645-2.018.288.5.941,1.664,1.177,2.213.009-.1.018-.207.027-.31a14.981,14.981,0,0,0-.934-2.682c1.044-5.434,4.405-12.55,8.027-16.391H87.723a2.235,2.235,0,0,0-2.232,2.232v26.442c5.645-2.167,12.451-4.147,18.309-4.062a8.846,8.846,0,0,0-.725-2.036,5.943,5.943,0,0,1,.388-2.538" transform="translate(-84.572 315.777)" fill="#fff"/>
      <path id="path3045" d="M206.739-328.536c-1.771-1.58-3.916-.945-6.033.933-.314.279-.628.589-.94.919-3.621,3.841-6.982,10.957-8.026,16.391a14.984,14.984,0,0,1,.934,2.682c.054.206.1.4.141.565.092.39.141.643.141.643s-.033-.123-.166-.509c-.025-.074-.054-.155-.087-.25-.014-.039-.034-.087-.056-.138-.236-.549-.89-1.708-1.177-2.213-.246.726-.463,1.4-.645,2.018a17.857,17.857,0,0,1,1.336,4.122s-.044-.169-.252-.757a28.022,28.022,0,0,0-1.326-2.515,5.942,5.942,0,0,0-.388,2.538,8.845,8.845,0,0,1,.725,2.036c.491,1.889.833,4.189.833,4.189s.011.152.03.387a38.49,38.49,0,0,0,.1,4.718,16.725,16.725,0,0,0,.86,4.564l.265-.145a20.4,20.4,0,0,1-.7-6.814,51.92,51.92,0,0,1,2.853-14.262c2.959-7.815,7.064-14.085,10.82-17.079-3.424,3.092-8.059,13.1-9.446,16.809a67.205,67.205,0,0,0-3.318,11.779c1.145-3.5,4.846-5,4.846-5s1.815-2.239,3.937-5.437a38.577,38.577,0,0,0-4.056,1.08c-1.031.432-1.309.58-1.309.58a35.242,35.242,0,0,1,6.2-2.954c3.94-6.206,8.233-15.022,3.91-18.878" transform="translate(-171.69 329.431)" fill="#dcdcdc"/>
    </g>
  </g>
</svg>
