<svg xmlns="http://www.w3.org/2000/svg" width="41.023" height="41.022" viewBox="0 0 41.023 41.022">
  <path id="Icon_awesome-git-alt" data-name="Icon awesome-git-alt" d="M40.249,20.934,22.343,3.024a2.644,2.644,0,0,0-3.737,0l-3.723,3.72L19.6,11.462a3.139,3.139,0,0,1,3.973,4l4.547,4.547a3.142,3.142,0,1,1-1.88,1.772L22,17.542V28.7a3.141,3.141,0,1,1-2.584-.092V17.345a3.141,3.141,0,0,1-1.707-4.121L13.055,8.568.774,20.851a2.643,2.643,0,0,0,0,3.737L18.685,42.5a2.643,2.643,0,0,0,3.736,0L40.249,24.671a2.643,2.643,0,0,0,0-3.737Z" transform="translate(0 -2.25)" fill="#fff"/>
</svg>
