<svg xmlns="http://www.w3.org/2000/svg" width="43.388" height="43.388" viewBox="0 0 43.388 43.388">
  <path id="Icon_awesome-wordpress-simple" data-name="Icon awesome-wordpress-simple" d="M22.257.563A21.694,21.694,0,1,0,43.951,22.257,21.719,21.719,0,0,0,22.257.563ZM2.749,22.257a19.371,19.371,0,0,1,1.688-7.934l9.308,25.491A19.522,19.522,0,0,1,2.749,22.257ZM22.257,41.764a19.431,19.431,0,0,1-5.511-.8L22.6,23.963,28.59,40.391a2.636,2.636,0,0,0,.14.271A19.529,19.529,0,0,1,22.257,41.764Zm2.686-28.649c1.172-.061,2.231-.184,2.231-.184a.807.807,0,0,0-.122-1.61s-3.158.245-5.2.245c-1.916,0-5.135-.245-5.135-.245a.807.807,0,0,0-.122,1.61s1,.122,2.047.184l3.035,8.328-4.269,12.8-7.1-21.126c1.172-.061,2.231-.184,2.231-.184a.807.807,0,0,0-.122-1.61s-3.158.245-5.2.245c-.367,0-.8-.009-1.26-.026A19.507,19.507,0,0,1,35.431,7.867a2.471,2.471,0,0,0-.254-.017,3.376,3.376,0,0,0-3.272,3.464c0,1.61.927,2.965,1.916,4.575a10.237,10.237,0,0,1,1.61,5.38c0,1.671-.639,3.6-1.487,6.307L32,34.075,24.942,13.115Zm7.121,26L38.02,21.889A18.451,18.451,0,0,0,39.507,14.9a14.357,14.357,0,0,0-.131-2,19.508,19.508,0,0,1-7.313,26.217Z" transform="translate(-0.563 -0.563)" fill="#fff"/>
</svg>
